<?xml version="1.0" encoding="utf-8"?>
<!-- Generator: Adobe Illustrator 28.1.0, SVG Export Plug-In . SVG Version: 6.00 Build 0)  -->
<svg version="1.1" xmlns="http://www.w3.org/2000/svg" xmlns:xlink="http://www.w3.org/1999/xlink" x="0px" y="0px"
	 viewBox="0 0 1152 1152" style="enable-background:new 0 0 1152 1152;" xml:space="preserve">
<style type="text/css">
	.st0{fill:#0F0F0F;}
	.st1{fill:none;}
	.st2{fill:#FF0000;}
	.st3{fill:#000CE2;}
	.st4{fill:#FFFFFF;}
</style>
<g id="Layer_4">
	<g>
		<path d="M576,1127.5c-74.5,0-146.7-14.6-214.7-43.3c-65.7-27.8-124.7-67.5-175.3-118.2c-50.7-50.7-90.4-109.6-118.2-175.3
			c-28.8-68-43.3-140.2-43.3-214.7s14.6-146.7,43.3-214.7C95.6,295.7,135.4,236.7,186,186c50.7-50.7,109.6-90.4,175.3-118.2
			c68-28.8,140.2-43.3,214.7-43.3s146.7,14.6,214.7,43.3C856.3,95.6,915.3,135.4,966,186c50.7,50.7,90.4,109.6,118.2,175.3
			c28.8,68,43.3,140.2,43.3,214.7s-14.6,146.7-43.3,214.7c-27.8,65.7-67.5,124.7-118.2,175.3c-50.7,50.7-109.6,90.4-175.3,118.2
			C722.7,1112.9,650.5,1127.5,576,1127.5z"/>
		<path class="st0" d="M576,49c71.2,0,140.2,13.9,205.1,41.4c62.7,26.5,119.1,64.5,167.5,113s86.4,104.8,113,167.5
			c27.5,64.9,41.4,134,41.4,205.1s-13.9,140.2-41.4,205.1c-26.5,62.7-64.5,119.1-113,167.5s-104.8,86.4-167.5,113
			c-64.9,27.5-134,41.4-205.1,41.4s-140.2-13.9-205.1-41.4c-62.7-26.5-119.1-64.5-167.5-113s-86.4-104.8-113-167.5
			C62.9,716.2,49,647.2,49,576s13.9-140.2,41.4-205.1c26.5-62.7,64.5-119.1,113-167.5s104.8-86.4,167.5-113
			C435.8,62.9,504.8,49,576,49 M576,0C257.9,0,0,257.9,0,576s257.9,576,576,576s576-257.9,576-576S894.1,0,576,0L576,0z"/>
	</g>
	<g>
		<path class="st0" d="M208.3,490c38.1,0,76.3,0,114.4,0c14.9,0,19.6-4.4,19.7-19.5c0.3-35.7-0.2-71.5,0.7-107.2
			c1.2-49.6,0.4-99.2,1.7-148.7c0.8-31.7,0.7-63.4,1.3-95.2c0.2-10.9,0.7-11.5,11.2-11.5c66.7,0,133.3,0,200,0
			c10.6,0,11.1,0.6,11.2,11.5c0.6,44.8,1.2,89.6,1.8,134.3c0.2,17.6,2.1,20.7,18.7,26c23.4,7.4,46.2,16.6,70.2,21.9
			c10.5,2.3,21.1,2.6,31.7,4c36,4.8,71,14.7,106.2,23.1c10.1,2.4,19.7,2.7,29.9,1c57.2-9.7,113.1-6,167.2,16.3
			c10.9,4.5,16.4,10.8,16.3,23.3c-0.1,34.4,1,68.8,1.4,103.1c0.1,7.9,1.4,15.3,4.8,22.5c8.4,17.9,16.7,35.8,28,52.1
			c2.9,4.1,3.9,8.5,4.1,13.4c1.3,33.4-6.2,65.7-12.4,98.1c-3.2,16.6-13,28.5-29.9,33.3c-27,7.7-49.7,22.4-70.3,41.2
			c-22,20-49.1,31.8-75.9,43.7c-14.4,6.4-28.9,12.4-43.4,18.5c-3.6,1.5-6.7,3.3-8.1,7.1c-7.5,19.7-20.2,36.3-31.8,53.5
			c-6.7,9.9-11.4,20.4-13.3,32.2c-1.6,9.5-3.8,18.8-7.8,27.7c-1.5,3.3-1.8,6.7-0.6,10.1c4,11.4,5.9,23.2,8.5,34.9
			c2.4,10.9,6.8,20.8,14.1,29.2c3,3.5,4.9,7.3,2.9,11.7c-1.8,3.9-6,2.5-9.3,2.9c-14.9,2.1-29.2-1.6-43.3-5.6
			c-22.8-6.5-45.6-13.1-68.2-20.2c-14.9-4.7-27.1-13.7-32.1-28.9c-8.3-24.8-22.5-46.5-35.5-68.8c-20.1-34.2-40.4-68.3-55.7-105.2
			c-9.2-22.2-25.8-39.7-41.9-57.1c-10.1-10.9-20.7-21.5-32.3-31c-3.4-2.8-7-4.4-11.5-5.1c-11.1-1.5-22.1-3.6-33.1-5.3
			c-17.5-2.7-32.6,3-46.3,13.4c-5.2,4-7.2,9.7-8.5,15.9c-1.6,7.8-2.7,15.8-5.6,23.3c-5.8,15-18.5,22-33.3,16.1
			c-25.5-10.3-49.9-23-72-39.6c-13-9.7-18.1-24.7-23.5-39.2c-6.4-17.2-11.2-35.1-20.6-51.1c-3.5-5.9-8-10.6-14.4-13.4
			c-21.9-9.3-37.6-25.9-51.5-44.4c-5.5-7.2-11.4-12.8-20.3-15.9c-18.5-6.4-29.1-22.1-39.9-36.8c-5.9-7.9-1-15,8.9-15
			c39.2-0.1,78.4,0,117.6,0C208.3,490.4,208.3,490.2,208.3,490z"/>
	</g>
</g>
<g id="Layer_1">
	<path class="st1" d="M1310.3-811.4L1310.3-811.4c-7.8,0-14.2-6.3-14.2-14.2s6.3-14.2,14.2-14.2s14.2,6.3,14.2,14.2
		S1318.1-811.4,1310.3-811.4z"/>
	<path class="st1" d="M1310.3-811.4L1310.3-811.4c-7.8,0-14.2-6.3-14.2-14.2s6.3-14.2,14.2-14.2s14.2,6.3,14.2,14.2
		S1318.1-811.4,1310.3-811.4z"/>
	<g>
		<g>
			<g>
				<path d="M782.4,652.6c-1.4-4.3-4.8-7.7-9.1-9.1l-154.9-50.3c-1.4-0.5-2.9-0.7-4.4-0.7c-4.5,0-8.8,2.1-11.5,5.8
					c-3.6,5-3.6,11.7,0,16.7l250.7,345c2.7,3.8,7.1,5.8,11.5,5.8c2.2,0,4.4-0.5,6.4-1.5c6.2-3.2,9.2-10.4,7-17L782.4,652.6z"/>
			</g>
			<g>
				<path d="M1041.2,440.8c-2.5-4.9-7.4-7.7-12.6-7.7c-1.5,0-2.9,0.2-4.4,0.7l-282.7,91.9l-122.9,39.9c-5.8,1.9-9.8,7.3-9.8,13.5
					s4,11.6,9.8,13.5l154.9,50.3c1.4,0.5,2.9,0.7,4.4,0.7c3,0,5.9-0.9,8.3-2.7l250.7-182.1C1042.5,454.6,1044.3,447,1041.2,440.8z"
					/>
			</g>
			<g>
				<path d="M602,615.3c-2.7-3.7-7-5.8-11.5-5.8c-1.5,0-2.9,0.2-4.4,0.7c-5.8,1.9-9.8,7.3-9.8,13.5v162.9c0,4.5,2.2,8.8,5.8,11.5
					l250.7,182.1c2.5,1.8,5.4,2.7,8.3,2.7c3.7,0,7.3-1.4,10-4.2c4.9-4.9,5.5-12.7,1.4-18.4L602,615.3z"/>
			</g>
			<g>
				<path d="M565.9,610.2c-1.4-0.5-2.9-0.7-4.4-0.7c-4.5,0-8.8,2.1-11.5,5.8l-76,104.6L299.4,960.3c-4.1,5.6-3.5,13.4,1.4,18.4
					c2.7,2.7,6.4,4.2,10,4.2c2.9,0,5.8-0.9,8.3-2.7L569.8,798c3.7-2.7,5.8-6.9,5.8-11.5V623.6C575.7,617.5,571.7,612.1,565.9,610.2z
					"/>
			</g>
			<g>
				<path d="M698.3,411.3l-95.8,131.8c-3.6,5-3.6,11.7,0,16.7c2.7,3.7,7,5.8,11.5,5.8c1.5,0,2.9-0.2,4.4-0.7l122.9-39.9l282.7-91.9
					c6.6-2.2,10.7-8.8,9.6-15.7s-7-12-14-12H709.7C705.2,405.4,700.9,407.6,698.3,411.3z"/>
			</g>
			<g>
				<path d="M586.1,547.8c1.4,0.5,2.9,0.7,4.4,0.7c4.5,0,8.8-2.1,11.5-5.8l95.7-131.8c2.7-3.7,3.4-8.4,2-12.7L604,103.5
					c-1.9-5.9-7.4-9.8-13.5-9.8c-0.7,0-1.5,0.1-2.2,0.2c-6.9,1.1-12,7-12,14v426.4C576.3,540.5,580.3,545.9,586.1,547.8z"/>
			</g>
			<g>
				<path d="M374.1,643.5c1.5,0,2.9-0.2,4.4-0.7l154.9-50.3c5.8-1.9,9.8-7.3,9.8-13.5c0-6.1-4-11.6-9.8-13.5l-123-40
					c-0.1-0.1-0.3-0.1-0.4-0.1l-282.2-91.7c-1.4-0.5-2.9-0.7-4.4-0.7c-5.2,0-10.2,2.9-12.6,7.7c-3.2,6.2-1.3,13.8,4.3,17.9
					l250.7,182.1C368.2,642.6,371.2,643.5,374.1,643.5z"/>
			</g>
			<g>
				<path d="M563.7,93.9c-0.7-0.1-1.5-0.2-2.2-0.2c-6,0-11.5,3.9-13.5,9.8l-95.7,294.7c-1.4,4.3-0.7,9,2,12.7L550,542.6
					c2.7,3.7,7,5.8,11.5,5.8c1.5,0,2.9-0.2,4.4-0.7c5.8-1.9,9.8-7.3,9.8-13.5V107.9C575.7,100.9,570.6,95,563.7,93.9z"/>
			</g>
			<g>
				<path d="M298.8,959.9l250.7-345c3.6-5,3.6-11.7,0-16.7c-2.7-3.7-7-5.8-11.5-5.8c-1.5,0-2.9,0.2-4.4,0.7l-154.9,50.3
					c-4.3,1.4-7.7,4.8-9.1,9.1l-95.7,294.7c-2.2,6.6,0.8,13.8,7,17c2.1,1,4.3,1.5,6.4,1.5C291.7,965.8,296.1,963.7,298.8,959.9z"/>
			</g>
			<g>
				<path d="M128,433.1l282.7,91.9c0.2,0.1,0.3,0.1,0.5,0.2l122.4,39.8c1.4,0.5,2.9,0.7,4.4,0.7c4.5,0,8.8-2.1,11.5-5.8
					c3.6-5,3.6-11.7,0-16.7l-95.8-131.8c-2.7-3.7-6.9-5.8-11.5-5.8H132.4c-7,0-12.9,5.1-14,12C117.3,424.3,121.4,430.9,128,433.1z"
					/>
			</g>
		</g>
		<polygon class="st2" points="614,606.6 768.9,656.9 864.7,951.6 		"/>
		<polygon class="st2" points="623,579 745.9,539.1 1028.6,447.2 777.9,629.3 		"/>
		<polygon class="st2" points="590.5,786.5 590.5,623.6 841.2,968.7 		"/>
		<polygon class="st3" points="485.5,728.2 561.5,623.6 561.5,786.5 310.8,968.7 		"/>
		<polygon class="st4" points="709.7,419.6 1019.6,419.6 736.9,511.5 614,551.4 		"/>
		<polygon class="st4" points="590.5,107.9 686.3,402.5 590.5,534.3 		"/>
		<path class="st3" d="M123.4,447.2l282.2,91.7c0.2,0.1,0.3,0.1,0.5,0.2L529,579l-154.9,50.3L123.4,447.2z"/>
		<polygon class="st3" points="465.7,402.5 561.5,107.9 561.5,534.3 		"/>
		<polygon class="st3" points="383.1,656.9 538,606.6 462,711.1 287.3,951.6 		"/>
		<path class="st3" d="M415.6,511.6c-0.2-0.1-0.3-0.1-0.5-0.2l-282.7-91.8h309.8L538,551.4L415.6,511.6z"/>
	</g>
	<path class="st1" d="M1310.3-811.4L1310.3-811.4c-7.8,0-14.2-6.3-14.2-14.2s6.3-14.2,14.2-14.2s14.2,6.3,14.2,14.2
		S1318.1-811.4,1310.3-811.4z"/>
	<path class="st1" d="M1310.3-811.4L1310.3-811.4c-7.8,0-14.2-6.3-14.2-14.2s6.3-14.2,14.2-14.2s14.2,6.3,14.2,14.2
		S1318.1-811.4,1310.3-811.4z"/>
	<g>
		<g>
			<path d="M246,640.7h-26.9v-54.9h-50.3v54.9h-27V513.6h27v49.8h50.3v-49.8H246V640.7z"/>
			<path d="M393.5,577c0,21-5.2,37.2-15.7,48.5c-10.4,11.3-25.4,17-44.9,17s-34.4-5.7-44.9-17c-10.4-11.3-15.7-27.5-15.7-48.7
				c0-21.2,5.2-37.3,15.7-48.5c10.5-11.2,25.5-16.7,45-16.7c19.5,0,34.5,5.6,44.8,16.9C388.3,539.7,393.5,555.9,393.5,577z
				 M300.7,577c0,14.2,2.7,24.9,8.1,32.1s13.4,10.8,24.2,10.8c21.5,0,32.3-14.3,32.3-42.9c0-28.6-10.7-43-32.1-43
				c-10.7,0-18.8,3.6-24.3,10.8C303.4,552.1,300.7,562.8,300.7,577z"/>
			<path d="M523.3,513.6v82.3c0,9.4-2.1,17.6-6.3,24.7c-4.2,7.1-10.3,12.5-18.2,16.3c-7.9,3.8-17.3,5.7-28.2,5.7
				c-16.3,0-29-4.2-38.1-12.6c-9-8.4-13.6-19.8-13.6-34.4v-81.9h26.9v77.8c0,9.8,2,17,5.9,21.6c3.9,4.6,10.5,6.9,19.6,6.9
				c8.8,0,15.2-2.3,19.2-6.9c4-4.6,6-11.8,6-21.7v-77.6H523.3z"/>
			<path d="M629.5,605.4c0,11.5-4.1,20.5-12.4,27.1c-8.3,6.6-19.8,9.9-34.5,9.9c-13.6,0-25.6-2.6-36-7.7v-25
				c8.6,3.8,15.8,6.5,21.8,8.1c5.9,1.6,11.4,2.3,16.3,2.3c5.9,0,10.4-1.1,13.6-3.4c3.2-2.3,4.7-5.6,4.7-10.1c0-2.5-0.7-4.7-2.1-6.7
				c-1.4-1.9-3.4-3.8-6.1-5.6c-2.7-1.8-8.2-4.7-16.5-8.6c-7.8-3.7-13.6-7.2-17.5-10.5c-3.9-3.4-7-7.3-9.3-11.7
				c-2.3-4.5-3.5-9.7-3.5-15.7c0-11.2,3.8-20.1,11.4-26.5c7.6-6.4,18.2-9.7,31.6-9.7c6.6,0,12.9,0.8,18.9,2.3
				c6,1.6,12.3,3.8,18.8,6.6l-8.7,21c-6.8-2.8-12.4-4.7-16.8-5.8c-4.4-1.1-8.8-1.7-13.1-1.7c-5.1,0-9,1.2-11.7,3.6
				c-2.7,2.4-4.1,5.5-4.1,9.3c0,2.4,0.6,4.4,1.7,6.2c1.1,1.8,2.9,3.5,5.3,5.1c2.4,1.7,8.1,4.6,17.1,8.9c11.9,5.7,20,11.4,24.4,17.1
				C627.3,590.1,629.5,597.1,629.5,605.4z"/>
			<path d="M701.6,640.7h-27V536h-34.5v-22.4h96V536h-34.5V640.7z"/>
			<path d="M871,577c0,21-5.2,37.2-15.7,48.5c-10.4,11.3-25.4,17-44.9,17s-34.4-5.7-44.9-17C755.2,614.2,750,598,750,576.8
				c0-21.2,5.2-37.3,15.7-48.5c10.5-11.2,25.5-16.7,45-16.7c19.5,0,34.5,5.6,44.8,16.9C865.9,539.7,871,555.9,871,577z M778.3,577
				c0,14.2,2.7,24.9,8.1,32.1c5.4,7.2,13.4,10.8,24.2,10.8c21.5,0,32.3-14.3,32.3-42.9c0-28.6-10.7-43-32.1-43
				c-10.7,0-18.8,3.6-24.3,10.8C781,552.1,778.3,562.8,778.3,577z"/>
			<path d="M1010.2,640.7h-34.3l-55.3-96.2h-0.8c1.1,17,1.7,29.1,1.7,36.3v59.8h-24.1V513.6h34l55.2,95.2h0.6
				c-0.9-16.5-1.3-28.2-1.3-35v-60.2h24.3V640.7z"/>
		</g>
		<g>
			<polygon points="205,654.9 205,600 183,600 183,654.9 127.7,654.9 127.7,499.4 183,499.4 183,549.3 205,549.3 205,499.4
				260.2,499.4 260.2,654.9 			"/>
			<path d="M333,656.6c-23.5,0-42.1-7.2-55.3-21.5c-12.9-14-19.4-33.6-19.4-58.3c0-24.8,6.6-44.4,19.5-58.2
				c13.2-14.1,31.8-21.2,55.3-21.2c23.6,0,42.2,7.2,55.3,21.4c12.8,13.9,19.3,33.4,19.3,58.1c0,24.6-6.5,44.2-19.4,58.1
				C375.1,649.4,356.5,656.6,333,656.6z M333.1,548.2c-8,0-11.1,2.8-12.9,5.2c-3.5,4.6-5.3,12.8-5.3,23.6c0,10.8,1.8,19,5.3,23.6
				c1.8,2.4,4.9,5.1,12.8,5.1c6.8,0,18.1,0,18.1-28.7C351.1,548.2,339.8,548.2,333.1,548.2z"/>
			<path d="M470.6,656.6c-20,0-36-5.5-47.7-16.3c-12-11.1-18.1-26.2-18.1-44.8v-96.1H460v92c0,7,1.3,10.9,2.5,12.3
				c0.8,0.9,3.5,1.9,8.8,1.9c5,0,7.6-1,8.4-2c0.6-0.7,2.5-3.6,2.5-12.4v-91.8h55.2v96.4c0,11.9-2.8,22.7-8.3,31.9
				c-5.6,9.5-13.8,16.8-24.3,21.8C495,654.3,483.5,656.6,470.6,656.6z"/>
			<path d="M582.6,656.6c-15.7,0-29.9-3.1-42.2-9.1l-7.9-3.9v-55.7l19.9,8.9c7.8,3.5,14.4,6,19.6,7.3c4.7,1.2,9,1.9,12.7,1.9
				c0.7,0,1.3,0,1.8-0.1c-1.4-0.9-5.1-3-14.3-7.3c-9-4.2-15.8-8.4-20.7-12.6c-5.2-4.5-9.5-9.9-12.6-15.9c-3.4-6.5-5.1-13.9-5.1-22.2
				c0-15.3,5.7-28.3,16.5-37.4c10.2-8.6,23.9-13,40.7-13c7.8,0,15.4,0.9,22.5,2.8c6.7,1.7,13.7,4.2,20.9,7.3l12.8,5.5l-19.5,46.9
				l-13.1-5.4c-6.1-2.5-11.1-4.3-14.9-5.2c-2.6-0.6-5.1-1-7.6-1.2c2.2,1.2,6,3.1,12.2,6.1c14.1,6.7,23.7,13.7,29.5,21.2
				c6.3,8.2,9.6,18.2,9.6,29.7c0,15.7-6.1,28.9-17.7,38.2C615.1,652.3,600.6,656.6,582.6,656.6z"/>
			<polygon points="660.4,654.9 660.4,550.2 625.9,550.2 625.9,499.4 750.3,499.4 750.3,550.2 715.7,550.2 715.7,654.9 			"/>
			<path d="M810.5,656.6c-23.5,0-42.1-7.2-55.3-21.5c-12.9-14-19.4-33.6-19.4-58.3c0-24.8,6.6-44.4,19.5-58.2
				c13.2-14.1,31.8-21.2,55.3-21.2c23.6,0,42.2,7.2,55.3,21.4c12.8,13.9,19.3,33.4,19.3,58.1c0,24.6-6.5,44.2-19.4,58.1
				C852.6,649.4,834,656.6,810.5,656.6z M810.7,548.2c-8,0-11.1,2.8-12.9,5.2c-3.5,4.6-5.3,12.8-5.3,23.6c0,10.8,1.8,19,5.3,23.6
				c1.8,2.4,4.9,5.1,12.8,5.1c6.8,0,18.1,0,18.1-28.7C828.6,548.2,817.4,548.2,810.7,548.2z"/>
			<polygon points="967.7,654.9 935.6,599.2 935.6,654.9 883.2,654.9 883.2,499.4 939.5,499.4 971.7,554.9 971.7,499.4
				1024.3,499.4 1024.3,654.9 			"/>
		</g>
		<g>
			<path class="st4" d="M246,640.7h-26.9v-54.9h-50.3v54.9h-27V513.6h27v49.8h50.3v-49.8H246V640.7z"/>
			<path class="st4" d="M393.5,577c0,21-5.2,37.2-15.7,48.5c-10.4,11.3-25.4,17-44.9,17s-34.4-5.7-44.9-17
				c-10.4-11.3-15.7-27.5-15.7-48.7c0-21.2,5.2-37.3,15.7-48.5c10.5-11.2,25.5-16.7,45-16.7c19.5,0,34.5,5.6,44.8,16.9
				C388.3,539.7,393.5,555.9,393.5,577z M300.7,577c0,14.2,2.7,24.9,8.1,32.1s13.4,10.8,24.2,10.8c21.5,0,32.3-14.3,32.3-42.9
				c0-28.6-10.7-43-32.1-43c-10.7,0-18.8,3.6-24.3,10.8C303.4,552.1,300.7,562.8,300.7,577z"/>
			<path class="st4" d="M523.3,513.6v82.3c0,9.4-2.1,17.6-6.3,24.7c-4.2,7.1-10.3,12.5-18.2,16.3c-7.9,3.8-17.3,5.7-28.2,5.7
				c-16.3,0-29-4.2-38.1-12.6c-9-8.4-13.6-19.8-13.6-34.4v-81.9h26.9v77.8c0,9.8,2,17,5.9,21.6c3.9,4.6,10.5,6.9,19.6,6.9
				c8.8,0,15.2-2.3,19.2-6.9c4-4.6,6-11.8,6-21.7v-77.6H523.3z"/>
			<path class="st4" d="M629.5,605.4c0,11.5-4.1,20.5-12.4,27.1c-8.3,6.6-19.8,9.9-34.5,9.9c-13.6,0-25.6-2.6-36-7.7v-25
				c8.6,3.8,15.8,6.5,21.8,8.1c5.9,1.6,11.4,2.3,16.3,2.3c5.9,0,10.4-1.1,13.6-3.4c3.2-2.3,4.7-5.6,4.7-10.1c0-2.5-0.7-4.7-2.1-6.7
				c-1.4-1.9-3.4-3.8-6.1-5.6c-2.7-1.8-8.2-4.7-16.5-8.6c-7.8-3.7-13.6-7.2-17.5-10.5c-3.9-3.4-7-7.3-9.3-11.7
				c-2.3-4.5-3.5-9.7-3.5-15.7c0-11.2,3.8-20.1,11.4-26.5c7.6-6.4,18.2-9.7,31.6-9.7c6.6,0,12.9,0.8,18.9,2.3
				c6,1.6,12.3,3.8,18.8,6.6l-8.7,21c-6.8-2.8-12.4-4.7-16.8-5.8c-4.4-1.1-8.8-1.7-13.1-1.7c-5.1,0-9,1.2-11.7,3.6
				c-2.7,2.4-4.1,5.5-4.1,9.3c0,2.4,0.6,4.4,1.7,6.2c1.1,1.8,2.9,3.5,5.3,5.1c2.4,1.7,8.1,4.6,17.1,8.9c11.9,5.7,20,11.4,24.4,17.1
				C627.3,590.1,629.5,597.1,629.5,605.4z"/>
			<path class="st4" d="M701.6,640.7h-27V536h-34.5v-22.4h96V536h-34.5V640.7z"/>
			<path class="st4" d="M871,577c0,21-5.2,37.2-15.7,48.5c-10.4,11.3-25.4,17-44.9,17s-34.4-5.7-44.9-17
				C755.2,614.2,750,598,750,576.8c0-21.2,5.2-37.3,15.7-48.5c10.5-11.2,25.5-16.7,45-16.7c19.5,0,34.5,5.6,44.8,16.9
				C865.9,539.7,871,555.9,871,577z M778.3,577c0,14.2,2.7,24.9,8.1,32.1c5.4,7.2,13.4,10.8,24.2,10.8c21.5,0,32.3-14.3,32.3-42.9
				c0-28.6-10.7-43-32.1-43c-10.7,0-18.8,3.6-24.3,10.8C781,552.1,778.3,562.8,778.3,577z"/>
			<path class="st4" d="M1010.2,640.7h-34.3l-55.3-96.2h-0.8c1.1,17,1.7,29.1,1.7,36.3v59.8h-24.1V513.6h34l55.2,95.2h0.6
				c-0.9-16.5-1.3-28.2-1.3-35v-60.2h24.3V640.7z"/>
		</g>
	</g>
	<g>
		<g>
			<path d="M513.2,967.9v42.7h-23.6V899.3H522c15.1,0,26.3,2.8,33.6,8.3c7.3,5.5,10.9,13.9,10.9,25.1c0,6.5-1.8,12.4-5.4,17.5
				c-3.6,5.1-8.7,9.1-15.3,12c16.8,25,27.7,41.2,32.7,48.5h-26.2l-26.6-42.7H513.2z M513.2,948.7h7.6c7.5,0,13-1.2,16.5-3.7
				c3.6-2.5,5.3-6.4,5.3-11.7c0-5.3-1.8-9-5.4-11.3c-3.6-2.2-9.3-3.4-16.9-3.4h-7.2V948.7z"/>
			<path d="M669.4,934c0,12-3.7,21.1-11.2,27.5c-7.5,6.3-18.1,9.5-31.9,9.5h-10.1v39.6h-23.6V899.3h35.6c13.5,0,23.8,2.9,30.8,8.7
				C665.9,913.8,669.4,922.5,669.4,934z M616.1,951.7h7.8c7.3,0,12.7-1.4,16.3-4.3c3.6-2.9,5.4-7,5.4-12.5c0-5.5-1.5-9.6-4.5-12.3
				c-3-2.6-7.8-4-14.2-4h-10.7V951.7z"/>
		</g>
		<g>
			<path d="M545.4,1023.1l-19.8-31.9v31.9h-48.4V886.9H522c18.1,0,31.5,3.5,41.1,10.8c7.2,5.5,15.8,16,15.8,35
				c0,9.1-2.6,17.4-7.7,24.6c-2.3,3.2-4.9,6.1-8,8.6c12.7,18.9,21.2,31.5,25.5,37.7l13.5,19.5H545.4z M525.6,936.1
				c2.8-0.3,4.1-0.9,4.5-1.1c0.1-0.2,0.2-0.7,0.2-1.6c0-0.4,0-0.7-0.1-0.9c-0.7-0.3-2.1-0.7-4.6-1V936.1z"/>
			<path d="M580.1,1023.1V886.9h48c16.4,0,29.4,3.9,38.7,11.6c10,8.3,15,20.2,15,35.6c0,15.7-5.3,28.2-15.6,37
				c-9.3,7.9-22,12.1-37.7,12.4v39.6H580.1z M628.5,939c2.7-0.4,3.7-1.1,3.9-1.3c0.2-0.2,0.7-0.6,0.7-2.8c0-1.7-0.2-2.6-0.4-3
				c-0.3-0.2-1.5-0.7-4.3-0.8V939z"/>
		</g>
		<g>
			<path class="st4" d="M513.2,967.9v42.7h-23.6V899.3H522c15.1,0,26.3,2.8,33.6,8.3c7.3,5.5,10.9,13.9,10.9,25.1
				c0,6.5-1.8,12.4-5.4,17.5c-3.6,5.1-8.7,9.1-15.3,12c16.8,25,27.7,41.2,32.7,48.5h-26.2l-26.6-42.7H513.2z M513.2,948.7h7.6
				c7.5,0,13-1.2,16.5-3.7c3.6-2.5,5.3-6.4,5.3-11.7c0-5.3-1.8-9-5.4-11.3c-3.6-2.2-9.3-3.4-16.9-3.4h-7.2V948.7z"/>
			<path class="st4" d="M669.4,934c0,12-3.7,21.1-11.2,27.5c-7.5,6.3-18.1,9.5-31.9,9.5h-10.1v39.6h-23.6V899.3h35.6
				c13.5,0,23.8,2.9,30.8,8.7C665.9,913.8,669.4,922.5,669.4,934z M616.1,951.7h7.8c7.3,0,12.7-1.4,16.3-4.3c3.6-2.9,5.4-7,5.4-12.5
				c0-5.5-1.5-9.6-4.5-12.3c-3-2.6-7.8-4-14.2-4h-10.7V951.7z"/>
		</g>
	</g>
</g>
<g id="Layer_2">
</g>
<g id="Layer_3">
</g>
</svg>
